<svg width="4" height="15" viewBox="0 0 4 15" fill="none" xmlns="http://www.w3.org/2000/svg">
<path d="M2 3.75C3.03125 3.75 3.875 2.90625 3.875 1.875C3.875 0.84375 3.03125 0 2 0C0.96875 0 0.125 0.84375 0.125 1.875C0.125 2.90625 0.96875 3.75 2 3.75ZM2 5.625C0.96875 5.625 0.125 6.46875 0.125 7.5C0.125 8.53125 0.96875 9.375 2 9.375C3.03125 9.375 3.875 8.53125 3.875 7.5C3.875 6.46875 3.03125 5.625 2 5.625ZM2 11.25C0.96875 11.25 0.125 12.0937 0.125 13.125C0.125 14.1562 0.96875 15 2 15C3.03125 15 3.875 14.1562 3.875 13.125C3.875 12.0937 3.03125 11.25 2 11.25Z" fill="white"/>
</svg>
